Coordinates
version=1
nRows=14
nColumns=63
inDegrees=yes

Units are S.I. units (second, meters, Newtons, ...)
If the header above contains a line with 'inDegrees', this indicates whether rotational values are in degrees (yes) or radians (no).

endheader
time	pelvis_tilt	pelvis_list	pelvis_rotation	pelvis_tx	pelvis_ty	pelvis_tz	hip_flexion_r	hip_adduction_r	hip_rotation_r	knee_angle_r	knee_angle_r_beta	ankle_angle_r	subtalar_angle_r	mtp_angle_r	hip_flexion_l	hip_adduction_l	hip_rotation_l	knee_angle_l	knee_angle_l_beta	ankle_angle_l	subtalar_angle_l	mtp_angle_l	L5_S1_Flex_Ext	L5_S1_Lat_Bending	L5_S1_axial_rotation	L4_L5_Flex_Ext	L4_L5_Lat_Bending	L4_L5_axial_rotation	L3_L4_Flex_Ext	L3_L4_Lat_Bending	L3_L4_axial_rotation	L2_L3_Flex_Ext	L2_L3_Lat_Bending	L2_L3_axial_rotation	L1_L2_Flex_Ext	L1_L2_Lat_Bending	L1_L2_axial_rotation	L1_T12_Flex_Ext	L1_T12_Lat_Bending	L1_T12_axial_rotation	Abs_r3	Abs_r2	Abs_r1	Abs_t1	Abs_t2	neck_flexion	neck_bending	neck_rotation	arm_flex_r	arm_add_r	arm_rot_r	elbow_flex_r	pro_sup_r	wrist_flex_r	wrist_dev_r	arm_flex_l	arm_add_l	arm_rot_l	elbow_flex_l	pro_sup_l	wrist_flex_l	wrist_dev_l
0.000000	4.705786	-4.126274	100.660249	0.058959	0.881412	0.608279	11.899365	5.565063	-8.724749	19.060342	0.332666	41.943994	3.487729	0.000000	12.385562	-6.594717	-16.629956	19.715409	0.344099	50.343569	17.961183	0.000000	0.645851	0.922883	-0.783276	1.199410	1.227435	-0.832231	1.061069	2.243898	-0.832231	0.738143	2.243898	-0.685367	0.599737	1.881944	-0.636412	0.369039	1.429546	-0.587457	4.613249	10.439840	-4.356349	0.000000	0.000000	27.974034	5.458883	25.737116	24.269864	-3.699459	87.530531	34.747581	20.030021	-2.481510	-2.143966	18.286475	-1.435534	58.741044	30.338019	84.227773	-8.135983	-5.322370
0.017857	4.190149	-4.373820	101.031977	0.059081	0.881057	0.610381	12.131634	4.881903	-8.797649	19.518573	0.340663	42.189681	3.768123	0.000000	13.076098	-6.142709	-16.710965	20.816705	0.363320	50.242772	18.063182	0.000000	0.629314	0.845581	-0.775114	1.168699	1.124623	-0.823558	1.033900	2.055947	-0.823558	0.719243	2.055947	-0.678225	0.584381	1.724310	-0.629780	0.359590	1.309806	-0.581335	4.495127	9.565386	-4.310951	0.000000	0.000000	27.976296	5.205107	24.882596	24.721402	-3.808059	88.519727	35.256034	17.766499	-2.355159	-2.320904	19.395006	-1.879599	62.155302	30.714257	84.909553	-9.354552	-5.387336
0.035714	3.807562	-4.564706	101.458274	0.058984	0.880683	0.612097	12.330345	4.332295	-8.988085	19.917731	0.347630	42.435122	3.972510	0.000000	13.668958	-5.785325	-16.647212	21.747872	0.379572	50.204003	18.146204	0.000000	0.618023	0.785915	-0.791018	1.147730	1.045266	-0.840456	1.015350	1.910873	-0.840456	0.706338	1.910873	-0.692140	0.573896	1.602637	-0.642702	0.353138	1.217382	-0.593263	4.414475	8.890423	-4.399403	0.000000	0.000000	27.981423	4.980317	24.177966	25.073114	-3.896134	89.473346	35.664245	15.855926	-2.282237	-2.517995	20.246694	-2.224891	64.882583	31.027492	85.532940	-10.206765	-5.350840
0.053571	3.546413	-4.704025	101.928395	0.058696	0.880298	0.613457	12.498319	3.906510	-9.277833	20.261133	0.353623	42.677559	4.106918	0.000000	14.170938	-5.515676	-16.457615	22.521084	0.393067	50.219719	18.212135	0.000000	0.611471	0.742446	-0.827963	1.135562	0.987454	-0.879711	1.004585	1.805184	-0.879711	0.698850	1.805184	-0.724468	0.567812	1.513997	-0.672720	0.349394	1.150050	-0.620973	4.367674	8.398703	-4.604884	0.000000	0.000000	27.989091	4.783529	23.612633	25.335162	-3.966142	90.387597	35.981757	14.270345	-2.257286	-2.730612	20.864332	-2.479689	66.976484	31.282627	86.090904	-10.730491	-5.225899
0.071429	3.395090	-4.796870	102.431601	0.058245	0.879910	0.614491	12.638381	3.594824	-9.648667	20.552094	0.358702	42.914238	4.177374	0.000000	14.588835	-5.326873	-16.161093	23.148515	0.404018	50.282379	18.262859	0.000000	0.609151	0.713741	-0.882927	1.131254	0.949275	-0.938110	1.000774	1.735389	-0.938110	0.696199	1.735389	-0.772561	0.565658	1.455460	-0.717378	0.348069	1.105584	-0.662195	4.351105	8.073976	-4.910573	0.000000	0.000000	27.998975	4.613760	23.176003	25.517711	-4.020543	91.258686	36.218112	12.981796	-2.274851	-2.954124	21.270715	-2.652270	68.490600	31.484561	86.576415	-10.963600	-5.025530
0.089286	3.341981	-4.848334	102.957149	0.057660	0.879526	0.615230	12.753353	3.387511	-10.082362	20.793933	0.362923	43.142402	4.189907	0.000000	14.929442	-5.212026	-15.776565	23.642338	0.412637	50.384441	18.300260	0.000000	0.610557	0.698360	-0.952883	1.133866	0.928819	-1.012438	1.003084	1.697994	-1.012438	0.697806	1.697994	-0.833773	0.566963	1.424097	-0.774217	0.348872	1.081760	-0.714662	4.361149	7.899994	-5.299650	0.000000	0.000000	28.010750	4.470024	22.857483	25.630923	-4.061795	92.082822	36.382851	11.962320	-2.329477	-3.183904	21.488637	-2.750910	69.478530	31.638199	86.982443	-10.943961	-4.762750
0.107143	3.375474	-4.863508	103.494297	0.056969	0.879156	0.615704	12.846059	3.274843	-10.560693	20.989964	0.366344	43.359294	4.150543	0.000000	15.199558	-5.164245	-15.322951	24.014727	0.419136	50.518362	18.326224	0.000000	0.615183	0.694870	-1.034808	1.142455	0.924177	-1.099484	1.010683	1.689507	-1.099484	0.703092	1.689507	-0.905457	0.571259	1.416979	-0.840782	0.351515	1.076353	-0.776106	4.394187	7.860507	-5.755292	0.000000	0.000000	28.024092	4.351338	22.646481	25.684963	-4.092356	92.856214	36.485518	11.183960	-2.415707	-3.415324	21.540892	-2.783886	69.993869	31.748441	87.301958	-10.709443	-4.450576
0.125000	3.483957	-4.847486	104.032304	0.056200	0.878808	0.615944	12.919322	3.247096	-11.065436	21.143505	0.369024	43.562159	4.065310	0.000000	15.405976	-5.176639	-14.819169	24.277857	0.423729	50.676603	18.342635	0.000000	0.622520	0.701832	-1.125677	1.156082	0.933437	-1.196032	1.022739	1.706435	-1.196032	0.711478	1.706435	-0.984968	0.578072	1.431176	-0.914613	0.355708	1.087138	-0.844258	4.446600	7.939266	-6.260680	0.000000	0.000000	28.038675	4.256718	22.532404	25.689994	-4.114685	93.575067	36.535655	10.618757	-2.528085	-3.643753	21.450274	-2.759476	70.090214	31.820189	87.527929	-10.297917	-4.102024
0.142857	3.655817	-4.805361	104.560427	0.055382	0.878489	0.615981	12.975965	3.294542	-11.578365	21.257872	0.371020	43.748241	3.940236	0.000000	15.555494	-5.242321	-14.284139	24.443901	0.426627	50.851619	18.351378	0.000000	0.632064	0.717811	-1.222466	1.173806	0.954689	-1.298871	1.038418	1.745286	-1.298871	0.722386	1.745286	-1.069658	0.586935	1.463760	-0.993254	0.361161	1.111889	-0.916850	4.514769	8.120023	-6.798991	0.000000	0.000000	28.054175	4.185179	22.504657	25.656178	-4.131242	94.235591	36.542803	10.238752	-2.661156	-3.864565	21.239579	-2.685956	69.821162	31.858345	87.653326	-9.747250	-3.730111
0.160714	3.879444	-4.742225	105.067925	0.054544	0.878207	0.615846	13.018812	3.407456	-12.081256	21.336380	0.372390	43.914783	3.781349	0.000000	15.654905	-5.354399	-13.736778	24.525033	0.428043	51.035871	18.354337	0.000000	0.643307	0.741370	-1.322151	1.194685	0.986022	-1.404785	1.056888	1.802568	-1.404785	0.735235	1.802568	-1.156882	0.597374	1.511802	-1.074247	0.367585	1.148383	-0.991613	4.595074	8.386529	-7.353406	0.000000	0.000000	28.070268	4.135738	22.552650	25.593681	-4.144484	94.833994	36.516505	10.015986	-2.809463	-4.073129	20.931600	-2.571604	69.240309	31.867812	87.671120	-9.095313	-3.347854
0.178571	4.143224	-4.663171	105.544056	0.053714	0.877971	0.615568	13.050685	3.576112	-12.555883	21.382347	0.373192	44.059029	3.594675	0.000000	15.711008	-5.505984	-13.196007	24.533428	0.428189	51.221817	18.353398	0.000000	0.655742	0.771073	-1.421706	1.217778	1.025527	-1.510563	1.077318	1.874787	-1.510563	0.749447	1.874787	-1.243993	0.608922	1.572372	-1.155136	0.374691	1.194392	-1.066280	4.683897	8.722534	-7.907103	0.000000	0.000000	28.086628	4.107410	22.665787	25.512664	-4.156870	95.366482	36.466304	9.922502	-2.967551	-4.264818	20.549131	-2.424696	68.401252	31.853490	87.574279	-8.379974	-2.968269
0.196429	4.458336	-4.588568	105.948993	0.052933	0.877793	0.615173	13.105683	3.811756	-12.966289	21.401838	0.373533	44.190764	3.437880	0.000000	15.745962	-5.713603	-12.699319	24.478682	0.427234	51.332081	18.356428	0.000000	0.671187	0.809306	-1.518067	1.246462	1.076377	-1.612946	1.102694	1.967746	-1.612946	0.767100	1.967746	-1.328309	0.623265	1.650336	-1.233430	0.383516	1.253614	-1.138550	4.794224	9.155027	-8.443034	0.000000	0.000000	28.104784	4.117371	22.929929	25.488905	-4.164913	95.937519	36.383772	9.935875	-3.086825	-4.512814	20.127139	-2.217100	67.210171	31.758025	87.366407	-7.695953	-2.663571
0.214286	4.770295	-4.511540	106.290850	0.052277	0.877722	0.614769	13.162947	4.070595	-13.270741	21.403650	0.373564	44.284958	3.253561	0.000000	15.766113	-5.937625	-12.285288	24.395974	0.425790	51.460968	18.363090	0.000000	0.684654	0.847867	-1.602551	1.271470	1.127663	-1.702711	1.124818	2.061503	-1.702711	0.782491	2.061503	-1.402232	0.635769	1.728970	-1.302073	0.391211	1.313346	-1.201913	4.890413	9.591238	-8.912909	0.000000	0.000000	28.121877	4.152880	23.205472	25.456557	-4.192139	96.246355	36.339713	10.027229	-3.234457	-4.650600	19.703012	-2.023052	65.925743	31.693489	86.947510	-7.057546	-2.381591
0.232143	5.063491	-4.436891	106.573173	0.051716	0.877757	0.614355	13.217985	4.329527	-13.486953	21.397025	0.373449	44.340567	3.048756	0.000000	15.761738	-6.152396	-11.934687	24.266034	0.423522	51.577209	18.363140	0.000000	0.696595	0.884975	-1.674894	1.293647	1.177017	-1.779575	1.144437	2.151729	-1.779575	0.796139	2.151729	-1.465532	0.646858	1.804642	-1.360851	0.398035	1.370827	-1.256170	4.975711	10.011017	-9.315257	0.000000	0.000000	28.137748	4.168551	23.413840	25.428439	-4.241429	96.403158	36.334298	10.045823	-3.407189	-4.794096	19.286032	-1.845934	64.637046	31.667953	86.234871	-6.588242	-2.156812
